<svg version="1.1" id="Layer_1" xmlns="http://www.w3.org/2000/svg" xmlns:xlink="http://www.w3.org/1999/xlink" x="0px" y="0px"
	 width="100%" viewBox="0 0 272 92" enable-background="new 0 0 272 92" xml:space="preserve">
<path fill="#FDFDFD" opacity="1.000000" stroke="none" 
	d="
M184.000000,93.000000 
	C122.666672,93.000000 61.833340,93.000000 1.000008,93.000000 
	C1.000005,62.333340 1.000005,31.666677 1.000003,1.000012 
	C91.666656,1.000008 182.333313,1.000008 273.000000,1.000004 
	C273.000000,31.666655 273.000000,62.333309 273.000000,92.999985 
	C243.500000,93.000000 214.000000,93.000000 184.000000,93.000000 
M76.045998,32.205299 
	C71.354919,29.464991 66.663834,26.724684 61.646545,23.507303 
	C61.116375,23.306452 60.586205,23.105600 59.659668,22.361731 
	C55.054157,19.690630 50.448650,17.019529 45.413799,14.099422 
	C45.124630,20.501013 44.887573,25.748938 44.345985,30.993530 
	C44.345985,30.993530 44.041481,30.987907 43.346836,30.882010 
	C38.861740,28.411104 34.376640,25.940199 29.126938,23.384563 
	C24.197823,26.549597 19.268707,29.714628 14.122666,33.813763 
	C14.169887,38.870323 14.217106,43.926880 14.106000,49.507187 
	C14.153867,49.683182 14.201734,49.859173 14.085791,50.953373 
	C14.085791,56.319221 14.085791,61.685070 14.085791,67.444946 
	C19.932999,64.700073 24.955416,62.342388 29.974291,59.972324 
	C29.974291,59.972324 29.948322,59.956753 29.789253,60.884338 
	C29.829412,65.952057 29.869570,71.019783 29.934826,76.784866 
	C34.637058,79.551178 39.339294,82.317482 44.442032,85.594894 
	C49.663486,82.786598 54.884945,79.978302 60.615929,77.073708 
	C60.744610,76.958130 60.873287,76.842560 61.645687,76.530685 
	C66.386650,73.806320 71.127609,71.081947 76.128120,68.208435 
	C70.924377,64.826355 66.444427,61.914684 61.988007,58.714321 
	C61.988007,58.714321 62.002251,58.425018 62.573284,57.972862 
	C66.977036,55.308254 71.380791,52.643646 76.256493,49.154984 
	C76.201782,43.736023 76.147064,38.317066 76.045998,32.205299 
M205.628860,50.609550 
	C207.338928,52.859173 209.045990,55.111076 210.759628,57.357979 
	C215.642715,63.760635 216.017319,63.748619 221.064240,57.172287 
	C223.439896,54.076702 225.841888,51.001308 229.188553,46.682171 
	C229.188553,52.497307 229.188553,56.832569 229.188553,61.608608 
	C231.202438,61.399704 232.557526,61.259140 233.994827,61.110046 
	C233.994827,54.795090 234.139420,48.972801 233.904831,43.165829 
	C233.836334,41.470310 232.687332,39.818443 232.033585,38.146564 
	C230.473053,39.141830 228.536957,39.828480 227.419785,41.188057 
	C223.474197,45.989845 219.809082,51.022087 215.884750,56.167370 
	C211.512039,50.376484 207.705505,45.124420 203.621735,40.097569 
	C202.760773,39.037762 200.920197,38.587135 199.449234,38.337410 
	C199.069321,38.272911 197.923889,40.024277 197.905121,40.957092 
	C197.769272,47.713001 197.832184,54.472908 197.832184,61.036396 
	C201.477631,62.194317 202.695374,61.157070 202.487717,57.916283 
	C202.280960,54.689342 202.442429,51.438808 202.442429,46.783371 
	C203.975449,48.615650 204.554214,49.307381 205.628860,50.609550 
M122.538223,53.052383 
	C123.052849,60.007008 124.375771,61.281521 131.355011,61.507618 
	C132.516724,61.545254 133.680527,61.520493 134.843353,61.521416 
	C148.529434,61.532299 148.950943,61.112877 148.786209,47.653545 
	C148.696259,40.305923 147.089005,38.703178 139.600159,38.518673 
	C138.437988,38.490040 137.274582,38.511505 136.111740,38.511227 
	C122.761284,38.508015 122.529839,38.741112 122.538223,53.052383 
M258.884521,38.542824 
	C254.900864,38.593185 250.894928,38.396988 246.938965,38.754124 
	C241.566986,39.239101 240.740494,40.896290 240.735291,49.545288 
	C240.729462,59.186726 241.468781,60.632664 247.005585,61.311405 
	C248.810150,61.532623 250.651306,61.501083 252.475922,61.505867 
	C266.813263,61.543457 267.238953,61.010345 266.958832,46.669025 
	C266.861359,41.679371 265.010864,38.730553 258.884521,38.542824 
M177.552414,52.005863 
	C179.547745,52.007092 181.610413,51.700920 183.514603,52.118141 
	C184.774017,52.394085 185.805969,53.708191 186.939758,54.557518 
	C185.807175,55.390034 184.717743,56.860580 183.534256,56.940670 
	C179.230667,57.231888 174.890427,57.187969 170.574142,57.015770 
	C167.419891,56.889931 166.166031,57.889538 167.468872,61.414558 
	C173.627167,61.414558 179.916641,61.520874 186.200516,61.379234 
	C190.811859,61.275295 191.866699,58.162987 191.792557,54.194714 
	C191.717560,50.181255 189.928040,47.941612 185.777710,47.907494 
	C181.953720,47.876060 178.119003,48.013138 174.313370,47.738548 
	C173.434341,47.675121 172.654526,46.236744 171.829056,45.431087 
	C172.642578,44.614922 173.323669,43.479080 174.306610,43.071899 
	C175.302734,42.659237 176.601059,42.902203 177.760300,42.971077 
	C181.116852,43.170494 181.235306,41.416100 180.253281,38.594975 
	C177.629059,38.594975 174.998886,38.512215 172.376053,38.615662 
	C169.004059,38.748653 167.349396,40.635735 167.019913,43.975666 
	C166.381592,50.446106 168.159332,51.975204 177.552414,52.005863 
M103.448929,61.508400 
	C105.113907,61.492954 106.783745,61.553814 108.443001,61.448338 
	C114.394157,61.070049 115.994576,59.380924 116.129181,53.402298 
	C116.168861,51.639915 116.135284,49.875881 116.135284,48.181553 
	C106.148598,47.230846 106.148598,47.230846 106.401894,51.820137 
	C107.896217,52.126900 109.407257,52.437092 110.918297,52.747284 
	C111.126259,53.229244 111.334221,53.711201 111.542191,54.193161 
	C110.074104,55.142326 108.710281,56.583344 107.112778,56.921959 
	C104.881248,57.394962 102.457443,56.862064 100.147873,57.087280 
	C95.988708,57.492855 94.560204,55.787045 94.726646,51.653835 
	C95.055016,43.499653 93.625610,42.568588 102.915230,42.931763 
	C103.210045,42.943291 103.514633,42.705063 104.001717,42.507336 
	C104.001717,41.348633 104.001717,40.124512 104.001717,38.934128 
	C91.485397,37.472710 89.613388,39.030758 89.627960,50.630478 
	C89.640793,60.848843 90.404526,61.492344 103.448929,61.508400 
M160.826859,45.641563 
	C160.826859,43.374542 160.826859,41.107525 160.826859,38.367287 
	C158.657028,38.499832 157.128220,38.593220 155.597198,38.686741 
	C155.597198,46.502804 155.597198,53.763645 155.597198,61.298874 
	C157.358459,61.298874 158.891998,61.298874 160.826843,61.298874 
	C160.826843,56.177078 160.826843,51.388000 160.826859,45.641563 
z"/>
<path fill="#FEFBFA" opacity="1.000000" stroke="none" 
	d="
M62.002251,58.425018 
	C62.002251,58.425018 61.988007,58.714321 61.685047,58.744614 
	C60.901981,59.128689 60.421875,59.482475 59.592365,59.907379 
	C54.815125,62.614990 50.387280,65.251480 45.740150,67.884094 
	C45.520863,67.880211 45.095863,67.988739 44.909424,67.857880 
	C44.722988,67.727028 44.267433,67.728020 44.047371,67.461212 
	C39.200977,64.781845 34.574650,62.369297 29.948322,59.956749 
	C29.948322,59.956753 29.974291,59.972324 29.968616,59.644958 
	C29.840069,58.890388 29.717192,58.463184 29.686680,57.573372 
	C29.708239,52.046276 29.637430,46.981792 29.675831,41.702785 
	C29.984341,41.232567 30.114624,40.945564 30.219872,40.567921 
	C30.263849,40.508587 30.247488,40.361782 30.591412,40.281509 
	C34.675381,38.075302 38.466286,36.031300 42.118546,33.763958 
	C42.995869,33.219311 43.412811,31.933084 44.041481,30.987907 
	C44.041481,30.987907 44.345985,30.993530 44.599224,31.293039 
	C45.564186,31.996758 46.275906,32.400967 47.254288,33.035835 
	C51.935413,35.860485 56.349876,38.454475 60.787376,41.282978 
	C60.810413,41.517494 61.036125,41.927803 60.949478,42.392616 
	C61.242641,48.046627 61.622444,53.235821 62.002251,58.425018 
z"/>
<path fill="#0F0F3F" opacity="1.000000" stroke="none" 
	d="
M205.380920,50.304329 
	C204.554214,49.307381 203.975449,48.615650 202.442429,46.783371 
	C202.442429,51.438808 202.280960,54.689342 202.487717,57.916283 
	C202.695374,61.157070 201.477631,62.194317 197.832184,61.036396 
	C197.832184,54.472908 197.769272,47.713001 197.905121,40.957092 
	C197.923889,40.024277 199.069321,38.272911 199.449234,38.337410 
	C200.920197,38.587135 202.760773,39.037762 203.621735,40.097569 
	C207.705505,45.124420 211.512039,50.376484 215.884750,56.167370 
	C219.809082,51.022087 223.474197,45.989845 227.419785,41.188057 
	C228.536957,39.828480 230.473053,39.141830 232.033585,38.146568 
	C232.687332,39.818443 233.836334,41.470310 233.904831,43.165829 
	C234.139420,48.972801 233.994827,54.795090 233.994827,61.110046 
	C232.557526,61.259140 231.202438,61.399704 229.188553,61.608608 
	C229.188553,56.832569 229.188553,52.497307 229.188553,46.682171 
	C225.841888,51.001308 223.439896,54.076702 221.064240,57.172287 
	C216.017319,63.748619 215.642715,63.760635 210.759628,57.357979 
	C209.045990,55.111076 207.338928,52.859173 205.380920,50.304329 
z"/>
<path fill="#10103F" opacity="1.000000" stroke="none" 
	d="
M122.536987,52.616066 
	C122.529839,38.741112 122.761284,38.508015 136.111740,38.511227 
	C137.274582,38.511505 138.437988,38.490040 139.600159,38.518673 
	C147.089005,38.703178 148.696259,40.305923 148.786209,47.653545 
	C148.950943,61.112877 148.529434,61.532299 134.843353,61.521416 
	C133.680527,61.520493 132.516724,61.545254 131.355011,61.507618 
	C124.375771,61.281521 123.052849,60.007008 122.536987,52.616066 
M143.663956,52.168316 
	C143.222778,49.306561 143.382416,44.294109 142.231567,43.972607 
	C138.235550,42.856258 133.712891,42.923210 129.560226,43.592594 
	C128.594696,43.748226 127.865257,48.048401 127.779785,50.468151 
	C127.547668,57.039066 127.707657,57.045807 134.323730,57.058544 
	C135.987305,57.061749 137.655975,56.971920 139.313400,57.072048 
	C142.228226,57.248142 143.710434,55.996788 143.663956,52.168316 
z"/>
<path fill="#0E0E3E" opacity="1.000000" stroke="none" 
	d="
M259.313293,38.568893 
	C265.010864,38.730553 266.861359,41.679371 266.958832,46.669025 
	C267.238953,61.010345 266.813263,61.543457 252.475922,61.505867 
	C250.651306,61.501083 248.810150,61.532623 247.005585,61.311405 
	C241.468781,60.632664 240.729462,59.186726 240.735291,49.545288 
	C240.740494,40.896290 241.566986,39.239101 246.938965,38.754124 
	C250.894928,38.396988 254.900864,38.593185 259.313293,38.568893 
M261.781830,48.682732 
	C262.339630,44.345886 260.495331,42.473793 256.105621,42.949100 
	C254.295151,43.145138 252.368774,42.659847 250.636169,43.074219 
	C248.968887,43.472961 246.188431,44.570904 246.145248,45.469658 
	C245.968735,49.143135 245.472885,55.136417 247.273087,56.068634 
	C250.695801,57.841057 255.691727,57.189949 259.852325,56.479485 
	C260.859467,56.307507 261.157684,51.983841 261.781830,48.682732 
z"/>
<path fill="#121241" opacity="1.000000" stroke="none" 
	d="
M177.085938,52.005875 
	C168.159332,51.975204 166.381592,50.446106 167.019913,43.975666 
	C167.349396,40.635735 169.004059,38.748653 172.376053,38.615662 
	C174.998886,38.512215 177.629059,38.594975 180.253281,38.594975 
	C181.235306,41.416100 181.116852,43.170494 177.760300,42.971077 
	C176.601059,42.902203 175.302734,42.659237 174.306610,43.071899 
	C173.323669,43.479080 172.642578,44.614922 171.829056,45.431084 
	C172.654526,46.236744 173.434341,47.675121 174.313370,47.738548 
	C178.119003,48.013138 181.953720,47.876060 185.777710,47.907494 
	C189.928040,47.941612 191.717560,50.181255 191.792557,54.194714 
	C191.866699,58.162987 190.811859,61.275295 186.200516,61.379234 
	C179.916641,61.520874 173.627167,61.414558 167.468872,61.414558 
	C166.166031,57.889538 167.419891,56.889931 170.574142,57.015770 
	C174.890427,57.187969 179.230667,57.231888 183.534256,56.940670 
	C184.717743,56.860580 185.807175,55.390034 186.939758,54.557518 
	C185.805969,53.708191 184.774017,52.394085 183.514603,52.118141 
	C181.610413,51.700920 179.547745,52.007092 177.085938,52.005875 
z"/>
<path fill="#0D0D3D" opacity="1.000000" stroke="none" 
	d="
M102.993591,61.508404 
	C90.404526,61.492344 89.640793,60.848843 89.627960,50.630478 
	C89.613388,39.030758 91.485397,37.472710 104.001717,38.934128 
	C104.001717,40.124512 104.001717,41.348633 104.001717,42.507336 
	C103.514633,42.705063 103.210045,42.943291 102.915230,42.931763 
	C93.625610,42.568588 95.055016,43.499653 94.726646,51.653835 
	C94.560204,55.787045 95.988708,57.492855 100.147873,57.087280 
	C102.457443,56.862064 104.881248,57.394962 107.112778,56.921959 
	C108.710281,56.583344 110.074104,55.142326 111.542191,54.193161 
	C111.334221,53.711201 111.126259,53.229244 110.918297,52.747284 
	C109.407257,52.437092 107.896217,52.126900 106.401894,51.820137 
	C106.148598,47.230846 106.148598,47.230846 116.135284,48.181553 
	C116.135284,49.875881 116.168861,51.639915 116.129181,53.402298 
	C115.994576,59.380924 114.394157,61.070049 108.443001,61.448338 
	C106.783745,61.553814 105.113907,61.492954 102.993591,61.508404 
z"/>
<path fill="#FE8106" opacity="1.000000" stroke="none" 
	d="
M45.095863,67.988739 
	C45.095863,67.988739 45.520863,67.880211 45.934143,68.172150 
	C50.933750,71.366066 55.520077,74.268036 60.106403,77.170006 
	C54.884945,79.978302 49.663486,82.786598 44.529922,85.031097 
	C44.777161,78.974442 44.936512,73.481590 45.095863,67.988739 
z"/>
<path fill="#F8BD0B" opacity="1.000000" stroke="none" 
	d="
M29.594315,58.035980 
	C29.717192,58.463184 29.840069,58.890388 29.970390,59.651146 
	C24.955416,62.342388 19.932999,64.700073 14.085791,67.444946 
	C14.085791,61.685070 14.085791,56.319221 14.500069,50.535206 
	C19.807669,52.756683 24.700993,55.396332 29.594315,58.035980 
z"/>
<path fill="#F04606" opacity="1.000000" stroke="none" 
	d="
M14.339592,32.879662 
	C19.268707,29.714628 24.197823,26.549597 29.522968,23.939644 
	C30.028498,29.783743 30.137993,35.072762 30.247488,40.361782 
	C30.247488,40.361782 30.263849,40.508587 29.866245,40.396900 
	C24.425625,37.816696 19.382608,35.348179 14.339592,32.879662 
z"/>
<path fill="#F8BD0B" opacity="1.000000" stroke="none" 
	d="
M59.941765,59.836258 
	C60.421875,59.482475 60.901981,59.128689 61.673286,58.888962 
	C66.444427,61.914684 70.924377,64.826355 76.128120,68.208435 
	C71.127609,71.081947 66.386650,73.806320 61.320881,76.181366 
	C60.644638,70.500122 60.293201,65.168190 59.941765,59.836258 
z"/>
<path fill="#F8BD0C" opacity="1.000000" stroke="none" 
	d="
M46.987629,32.805172 
	C46.275906,32.400967 45.564186,31.996758 44.751488,31.294704 
	C44.887573,25.748938 45.124630,20.501013 45.413799,14.099422 
	C50.448650,17.019529 55.054157,19.690630 59.662319,22.918690 
	C58.137657,24.425770 56.529919,25.269360 55.100208,26.348761 
	C52.342861,28.430494 49.686096,30.645451 46.987629,32.805172 
z"/>
<path fill="#2D2D57" opacity="1.000000" stroke="none" 
	d="
M160.826843,46.120239 
	C160.826843,51.388000 160.826843,56.177078 160.826843,61.298874 
	C158.891998,61.298874 157.358459,61.298874 155.597198,61.298874 
	C155.597198,53.763645 155.597198,46.502804 155.597198,38.686741 
	C157.128220,38.593220 158.657028,38.499832 160.826859,38.367287 
	C160.826859,41.107525 160.826859,43.374542 160.826843,46.120239 
z"/>
<path fill="#F5A20C" opacity="1.000000" stroke="none" 
	d="
M47.254288,33.035835 
	C49.686096,30.645451 52.342861,28.430494 55.100208,26.348761 
	C56.529919,25.269360 58.137657,24.425770 59.860504,23.190199 
	C60.586205,23.105600 61.116375,23.306452 61.518608,24.045330 
	C61.312164,29.773523 61.233658,34.963692 61.083900,40.389069 
	C61.012646,40.624271 60.764343,41.048462 60.764343,41.048462 
	C56.349876,38.454475 51.935413,35.860485 47.254288,33.035835 
z"/>
<path fill="#FF7F00" opacity="1.000000" stroke="none" 
	d="
M14.231129,33.346710 
	C19.382608,35.348179 24.425625,37.816696 29.822268,40.456234 
	C30.114624,40.945564 29.984341,41.232567 29.330347,41.724583 
	C27.259502,42.768280 25.654736,43.599487 24.024796,44.377995 
	C20.778625,45.928467 17.518618,47.449970 14.264326,48.983440 
	C14.217106,43.926880 14.169887,38.870323 14.231129,33.346710 
z"/>
<path fill="#F6A316" opacity="1.000000" stroke="none" 
	d="
M14.185163,49.245316 
	C17.518618,47.449970 20.778625,45.928467 24.024796,44.377995 
	C25.654736,43.599487 27.259502,42.768280 29.221138,41.939106 
	C29.637430,46.981792 29.708239,52.046276 29.686680,57.573372 
	C24.700993,55.396332 19.807669,52.756683 14.581973,50.076099 
	C14.201734,49.859173 14.153867,49.683182 14.185163,49.245316 
z"/>
<path fill="#F5A30C" opacity="1.000000" stroke="none" 
	d="
M59.592369,59.907383 
	C60.293201,65.168190 60.644638,70.500122 60.999023,76.279518 
	C60.873287,76.842560 60.744610,76.958130 60.361168,77.121857 
	C55.520077,74.268036 50.933750,71.366066 46.153431,68.176033 
	C50.387280,65.251480 54.815125,62.614990 59.592369,59.907383 
z"/>
<path fill="#F04504" opacity="1.000000" stroke="none" 
	d="
M44.909424,67.857880 
	C44.936512,73.481590 44.777161,78.974442 44.329666,84.775543 
	C39.339294,82.317482 34.637058,79.551178 30.286720,76.385544 
	C35.181553,73.233490 39.724495,70.480759 44.267433,67.728020 
	C44.267433,67.728020 44.722988,67.727028 44.909424,67.857880 
z"/>
<path fill="#D90706" opacity="1.000000" stroke="none" 
	d="
M62.287766,58.198940 
	C61.622444,53.235821 61.242641,48.046627 61.307110,42.445049 
	C66.429108,44.681458 71.106827,47.330250 75.784546,49.979042 
	C71.380791,52.643646 66.977036,55.308254 62.287766,58.198940 
z"/>
<path fill="#FF8104" opacity="1.000000" stroke="none" 
	d="
M61.155151,40.153862 
	C61.233658,34.963692 61.312164,29.773523 61.681717,24.283865 
	C66.663834,26.724684 71.354919,29.464991 75.704803,32.608139 
	C70.627457,35.391937 65.891304,37.772900 61.155151,40.153862 
z"/>
<path fill="#F04301" opacity="1.000000" stroke="none" 
	d="
M61.083900,40.389069 
	C65.891304,37.772900 70.627457,35.391937 75.727982,32.954540 
	C76.147064,38.317066 76.201782,43.736023 76.020523,49.567013 
	C71.106827,47.330250 66.429108,44.681458 61.393753,41.980236 
	C61.036125,41.927803 60.810413,41.517494 60.787376,41.282978 
	C60.764343,41.048462 61.012646,40.624271 61.083900,40.389069 
z"/>
<path fill="#D90909" opacity="1.000000" stroke="none" 
	d="
M30.591412,40.281509 
	C30.137993,35.072762 30.028498,29.783743 29.905273,23.982008 
	C34.376640,25.940199 38.861740,28.411104 43.694160,30.934959 
	C43.412811,31.933084 42.995869,33.219311 42.118546,33.763958 
	C38.466286,36.031300 34.675381,38.075302 30.591412,40.281509 
z"/>
<path fill="#D90605" opacity="1.000000" stroke="none" 
	d="
M44.047371,67.461212 
	C39.724495,70.480759 35.181553,73.233490 30.274170,76.036865 
	C29.869570,71.019783 29.829412,65.952057 29.868790,60.420544 
	C34.574650,62.369297 39.200977,64.781845 44.047371,67.461212 
z"/>
<path fill="#F6F6F8" opacity="1.000000" stroke="none" 
	d="
M143.660614,52.601871 
	C143.710434,55.996788 142.228226,57.248142 139.313400,57.072048 
	C137.655975,56.971920 135.987305,57.061749 134.323730,57.058544 
	C127.707657,57.045807 127.547668,57.039066 127.779785,50.468151 
	C127.865257,48.048401 128.594696,43.748226 129.560226,43.592594 
	C133.712891,42.923210 138.235550,42.856258 142.231567,43.972607 
	C143.382416,44.294109 143.222778,49.306561 143.660614,52.601871 
z"/>
<path fill="#F6F6F8" opacity="1.000000" stroke="none" 
	d="
M261.781860,49.126011 
	C261.157684,51.983841 260.859467,56.307507 259.852325,56.479485 
	C255.691727,57.189949 250.695801,57.841057 247.273087,56.068634 
	C245.472885,55.136417 245.968735,49.143135 246.145248,45.469658 
	C246.188431,44.570904 248.968887,43.472961 250.636169,43.074219 
	C252.368774,42.659847 254.295151,43.145138 256.105621,42.949100 
	C260.495331,42.473793 262.339630,44.345886 261.781860,49.126011 
z"/>
</svg>